<?xml version="1.0" encoding="UTF-8" standalone="no"?>
<!-- Created with Inkscape (http://www.inkscape.org/) -->

<svg
   width="1200"
   height="400"
   viewBox="0 0 1200 400"
   version="1.1"
   id="svg1"
   inkscape:version="1.4.2 (f4327f4, 2025-05-13)"
   sodipodi:docname="NEW.SVG"
   xmlns:inkscape="http://www.inkscape.org/namespaces/inkscape"
   xmlns:sodipodi="http://sodipodi.sourceforge.net/DTD/sodipodi-0.dtd"
   xmlns="http://www.w3.org/2000/svg"
   xmlns:svg="http://www.w3.org/2000/svg">
  <sodipodi:namedview
     id="namedview1"
     pagecolor="#9b8c8c"
     bordercolor="#000000"
     borderopacity="0.25"
     inkscape:showpageshadow="2"
     inkscape:pageopacity="0.0"
     inkscape:pagecheckerboard="true"
     inkscape:deskcolor="#d1d1d1"
     inkscape:document-units="px"
     inkscape:zoom="0.68862936"
     inkscape:cx="410.96128"
     inkscape:cy="215.64576"
     inkscape:window-width="1920"
     inkscape:window-height="991"
     inkscape:window-x="3191"
     inkscape:window-y="206"
     inkscape:window-maximized="1"
     inkscape:current-layer="layer1" />
  <defs
     id="defs1">
    <rect
       x="142.31168"
       y="151.02464"
       width="734.79296"
       height="174.2592"
       id="rect2" />
  </defs>
  <g
     inkscape:label="Layer 1"
     inkscape:groupmode="layer"
     id="layer1">
    <text
       xml:space="preserve"
       style="font-style:normal;font-variant:normal;font-weight:normal;font-stretch:normal;font-size:12px;font-family:'Lemon Brush Arabic Personal Use Only';-inkscape-font-specification:'Lemon Brush Arabic Personal Use Only, Normal';font-variant-ligatures:normal;font-variant-caps:normal;font-variant-numeric:normal;font-variant-east-asian:normal;text-align:start;writing-mode:lr-tb;direction:ltr;text-anchor:start;white-space:pre;inline-size:160.489;display:inline;fill:none;fill-opacity:1;stroke:#ffffff;stroke-opacity:1;stroke-width:1.12962452;stroke-dasharray:none"
       x="147.60713"
       y="66.744095"
       id="text2"
       transform="matrix(1.9349904,0,0,6.4799693,-193.16774,-302.83067)" />
    <path
       d="m 1136.1938,248.80242 c 11.8818,-8.40325 0.2409,-54.46202 7.3507,-9.30007 22.8871,-23.23525 0.2413,-84.57105 4.0768,-123.83866 1.5071,-40.486593 -6.5397,-75.254082 -24.4612,-30.355101 3.123,53.736521 6.2753,109.535011 11.2663,163.233691 l 0.8837,1.00805 z m 3.3741,-8.32454 c -5.0538,-19.04654 -6.2061,-93.31791 -1.7561,-31.5173 0.2678,10.442 2.1019,21.20308 1.7561,31.5173 z m -5.1415,-67.11657 c -5.7656,-9.53039 -1.4267,-42.63507 -0.8033,-11.1861 z m 10.9257,48.90664 c -2.5508,-44.17273 -6.1919,-88.2415 -8.6763,-132.41215 2.9983,44.41305 10.3626,88.91322 9.6604,133.48524 z m -6.7482,-73.62011 c -4.0869,-1.54876 -4.2164,-65.396778 -0.8034,-14.82808 l 0.5222,8.65784 z m 1.446,-47.86609 c -2.7107,-23.874416 -3.6257,-45.999364 1.1247,-8.844816 0.487,1.467859 1.6763,9.053736 -1.1247,8.844816 z m -3.5348,-16.388927 c -3.7858,-15.263385 -0.015,-22.464714 0,0 z m 2.5708,224.242197 c 19.9516,-3.08696 18.7815,-16.26499 21.7257,-29.93662 -18.6768,-9.67424 -16.0908,-6.87533 -3.7305,-21.31131 -25.3,9.0657 17.5559,-8.87671 -7.9533,-3.96716 -19.5743,10.3129 -10.4158,39.80888 -3.5147,37.623 -30.3446,11.37817 10.0171,-3.64481 8.7366,0.94301 -2.3993,7.95983 -25.6188,5.04068 -15.2638,16.64908 z m 4.9808,-4.42241 c -1.1223,-1.86655 24.6436,-15.41001 3.3716,-1.50801 z m 9.6403,-21.07148 c -10.8568,-4.43487 -5.3256,-4.96963 0,0 z m -1.1247,-4.42241 c -21.0383,-9.63652 -0.6585,-3.69618 0,0 z m -12.3717,-8.58468 c 8.2571,-17.24686 4.5869,-2.09948 0,0 z m 18.3165,13.52738 c -2.8613,-3.00285 -4.8951,-8.49731 0,0 z m -204.53479,65.55571 c 26.00832,2.08196 53.97119,-53.31561 40.9712,-61.91373 8.04779,-32.82942 5.68009,24.93915 13.64709,-19.73013 -4.0222,-52.47674 47.35,-13.20096 66.1526,-44.72456 22.1151,-27.48663 -2.6697,27.39718 15.9605,9.30463 10.4688,-24.9385 18.5489,-51.69045 12.8537,-62.69416 3.9631,21.91347 14.2925,-35.89829 -7.5842,-7.48314 -25.9754,26.55124 -57.1472,34.80247 -87.3726,36.61902 -9.15769,-12.04317 -31.49454,-44.6001 -23.13671,-7.54412 7.59552,11.5301 -13.52705,-9.30572 -13.17505,4.68255 -0.22264,26.64734 38.18946,85.68189 -0.16064,99.37416 -11.14988,8.32187 -55.8356,8.70634 -20.19191,10.09676 37.27058,-8.27668 -27.24602,16.79276 -33.95434,-10.3569 -28.74102,-20.13584 13.03619,-71.25952 -2.18918,-85.74924 -22.78545,16.90236 -23.36001,83.23862 -11.94992,117.48654 10.91639,26.08131 32.88127,26.01907 50.12946,22.63232 z m -52.0575,-46.56537 c -5.43933,-7.7928 0.36403,-17.69327 0,0 z m 20.56592,17.42951 c -14.64585,-6.90995 -20.0569,-30.26567 -3.21345,-4.16228 l 3.5348,3.64199 z m -17.35255,-23.41276 c -4.30663,-6.7808 0.99305,-7.28321 0,0 z m -3.05273,-26.01418 c 0.24991,-13.01465 2.08553,1.71487 0,0 z m 52.05758,69.71799 c -10.16076,-2.18542 9.36919,-3.39174 0,0 z m -19.9233,-36.41985 c -0.80177,-7.52499 -11.3065,3.25896 0,0 z m 17.19184,28.09531 c -12.77165,0.23001 -37.57417,-7.02931 -12.69306,-4.42241 14.93962,6.50448 58.95805,-19.21706 20.71406,3.65418 l -4.10465,1.12593 z m -48.68342,-68.67743 c 3.65936,-27.31139 4.91342,-9.80372 0,0 z m 46.27332,48.90666 c -24.42851,2.03516 -7.79034,-6.79375 3.53479,-2.08114 z m 13.33576,26.53445 c -4.92315,-4.40336 5.50252,-3.38307 0,0 z m -14.78181,-19.51063 c -11.41567,0.2554 -34.54549,-12.24546 -10.39086,-4.15007 15.91004,3.4945 57.05602,-17.90676 19.22785,1.8088 l -5.021,1.95106 z m 5.46283,5.20283 c 12.4826,-9.38169 14.01368,2.769 0,0 z M 903.0595,247.50171 c -1.36376,-9.57813 5.64784,-13.61003 0,0 z m 7.06952,-5.98326 c 4.24729,-19.71128 3.89356,-3.075 0,0 z m -1.44605,-0.52029 c 4.51418,-22.8702 11.15648,-21.56674 0,0 z m -2.73137,-8.32453 c 5.22093,-24.40776 6.39419,-8.35429 0,0 z m 61.85847,87.40764 c 12.67593,-15.00842 29.98958,-19.70968 0,0 z m 1.28533,-17.42951 c 2.26785,-7.69483 8.12654,-1.41727 0,0 z m 34.223,-29.39601 c -1.5623,-6.96194 7.361,-7.08842 0,0 z m -12.05032,-16.90922 c -9.58721,-30.19153 -6.6897,-40.74729 0,0 z m 8.35492,8.84482 c -7.41845,-25.86447 1.0543,-21.86567 0,0 z m -16.22778,-41.88282 c -4.00508,-1.01062 -4.18088,-13.44081 0,0 z m 15.58507,23.41276 c -6.02176,-16.34194 0.22626,-15.15014 0,0 z m 3.37421,3.1217 c -9.69971,-27.17513 0.765,-18.99324 0,0 z m -6.58765,-18.20992 c -3.03182,-4.55909 -0.2393,-8.94115 0,0 z m -2.73138,-9.62525 c -8.85436,-14.21093 -21.80668,-46.60978 -3.66533,-11.81207 0.54683,4.17057 4.01553,7.21125 3.66533,11.81207 z m 4.01679,-23.41276 c -10.53114,-17.06446 -12.22349,-36.5464 0,0 z m 8.83694,9.3651 c -8.2652,-1.71977 7.8853,-2.91172 0,0 z m 8.0335,5.98326 c -22.92961,4.01732 13.022,-6.30757 0,0 z m -0.9639,-6.50355 c -7.5013,-1.99135 8.2944,-2.82207 0,0 z m 3.6954,16.90922 c -29.58885,0.38619 43.5711,-8.95309 7.0695,-1.04056 z m 9.3189,10.14553 c -40.7928,1.97778 18.9726,-3.77757 18.658,-4.81262 -6.1888,1.89873 -12.429,3.31505 -18.658,4.81262 z m -4.3381,-17.68964 c 4.4868,-3.95249 7.6946,1.8898 0,0 z m -4.8202,-11.44624 c 15.8302,-8.85357 16.469,2.96031 0,0 z m 6.9089,6.76369 c -7.2416,-2.35359 7.2402,-3.11011 0,0 z m 11.5684,-9.10496 c -6.4824,-4.06673 6.7408,-3.59106 0,0 z m 3.0527,16.12878 c -0.8039,-7.50084 8.8986,2.27073 0,0 z m -10.9257,-3.38184 c 17.8283,-8.56075 47.4953,-14.31507 14.5408,-2.99162 -4.7711,0.57116 -9.7372,4.11583 -14.5408,2.99162 z m 33.259,1.56086 c 14.495,-9.6856 7.6366,1.37712 0,0 z m -30.2061,-8.32454 c 13.3353,-2.13091 57.8024,-27.45128 54.1663,-22.69737 -16.5065,14.88949 -35.7189,20.63507 -54.1663,22.69737 z m 14.6211,8.58468 c 5.2979,-2.40305 45.2738,-32.97211 44.0239,-22.30717 -13.4002,10.16877 -28.8343,19.21862 -44.0239,22.30717 z m 50.1294,-10.92596 c 3.3947,-22.41841 9.3041,-27.65552 0,0 z M 943.54864,325.80437 c -2.18817,-6.86613 14.56019,1.95062 0,0 z M 835.73805,248.80242 c 11.88178,-8.40325 0.2408,-54.46202 7.3507,-9.30007 22.88714,-23.23531 0.24127,-84.57106 4.07675,-123.83866 1.50719,-40.486593 -6.53966,-75.254082 -24.46112,-30.355101 3.12299,53.736521 6.27537,109.535001 11.26627,163.233691 l 0.88374,1.00805 z m 3.37408,-8.32454 c -5.05385,-19.04659 -6.20598,-93.3179 -1.75608,-31.5173 0.26783,10.442 2.10195,21.20308 1.75608,31.5173 z m -5.14148,-67.11657 c -5.76548,-9.53053 -1.42671,-42.63498 -0.80334,-11.1861 z m 10.92566,48.90664 c -2.55078,-44.17274 -6.1919,-88.2415 -8.67627,-132.41215 2.99834,44.41304 10.36257,88.91329 9.66037,133.48524 z m -6.74816,-73.62011 c -4.08681,-1.54877 -4.2164,-65.396775 -0.80342,-14.82808 l 0.52223,8.65784 z m 1.44605,-47.86609 c -2.71079,-23.874393 -3.62565,-45.999396 1.12469,-8.844816 0.48725,1.468006 1.67616,9.053676 -1.12469,8.844816 z m -3.5348,-16.388927 c -3.78565,-15.263435 -0.0148,-22.46468 0,0 z m 2.57074,224.242197 c 19.95158,-3.08703 18.78146,-16.26495 21.72574,-29.93662 -18.67678,-9.67419 -16.0908,-6.87536 -3.73056,-21.31131 -25.29999,9.0657 17.55602,-8.87671 -7.95326,-3.96716 -19.57419,10.31289 -10.41593,39.80885 -3.51467,37.623 -30.34465,11.37814 10.01709,-3.64485 8.73655,0.94301 -2.39918,7.95991 -25.61875,5.04062 -15.2638,16.64908 z m 4.98084,-4.42241 c -1.12226,-1.8666 24.64345,-15.40997 3.37157,-1.50801 z m 9.64026,-21.07148 c -10.85698,-4.43492 -5.32515,-4.9696 0,0 z m -1.1247,-4.42241 c -21.03855,-9.63666 -0.65826,-3.69604 0,0 z m -12.37171,-8.58468 c 8.25708,-17.24686 4.58695,-2.09948 0,0 z m 18.31653,13.52738 c -2.86128,-3.00285 -4.8951,-8.49731 0,0 z m -143.15825,83.5055 c 20.02186,-0.68999 -0.76498,-85.53932 8.30884,-49.75745 2.20332,21.27565 9.23759,39.61963 3.37247,3.44003 -3.4361,-30.14938 -17.48837,-78.3449 11.35894,-72.89466 20.83752,-7.40487 44.92385,-2.65896 62.43696,-24.64631 10.2281,-30.31211 0.70439,-24.16618 8.17416,-50.23988 -20.36347,-28.34663 -45.13932,-6.88242 -51.42843,26.71331 -12.93215,5.99728 -30.39576,-1.0444 -38.98943,18.35624 -4.32581,7.88941 -13.13376,25.29172 -6.92895,52.51613 0.23565,-31.18285 -5.96198,-38.86673 -12.41187,-9.98294 3.02265,35.3536 5.9142,73.41794 14.82194,105.45496 z m -0.96404,-11.96652 c -6.37407,-28.28304 -0.68238,-29.46634 0,0 z m 4.98082,-23.93304 c -4.93747,-20.11124 -9.92838,-83.5628 -3.11552,-27.61568 0.71582,8.99317 3.92753,19.12859 3.11552,27.61568 z m -9.96163,-15.08822 c -7.46928,-44.76386 -1.32163,-34.39003 0,0 z m -3.85612,-34.859 c -3.82854,-11.86647 1.93562,-14.51153 0,0 z m 14.78178,17.68963 c -5.53099,-13.0017 -1.54864,-33.68609 0,0 z m -16.54916,-33.038 c -2.94152,-9.82548 2.57925,-5.12542 0,0 z m 22.97602,-33.038 c -1.63765,-4.78036 50.64204,-12.43699 16.01756,-3.74818 -5.3146,1.52029 -10.67461,2.54082 -16.01756,3.74818 z m -4.98082,-9.36511 c 14.92031,-6.54963 56.40065,-11.82576 17.51319,-2.08113 -4.86237,0.79399 -14.62491,4.01489 -17.51319,2.08113 z m 7.55156,14.56795 c -2.80126,-2.6938 30.80559,-9.82891 44.65166,-13.19771 10.94877,-3.03823 34.03359,-11.64785 9.32892,-0.30121 -17.94026,4.96676 -35.94125,9.58468 -53.98058,13.49892 z M 767.774,214.72385 c 8.96427,-9.07559 29.87622,-7.60271 7.55156,-0.78043 l -5.70383,1.26819 z m -1.92805,-24.97362 c 9.84461,-23.49294 8.35415,-8.29457 0,0 z m 4.33812,0.26015 c -4.82525,-3.66946 13.39573,-11.6204 0,0 z m 5.30217,4.16227 c -3.17524,-3.88493 7.79723,-2.71599 0,0 z m 14.4604,19.25049 c 12.47081,-11.1783 4.09035,1.76371 0,0 z m 2.08875,-17.94978 c -12.41989,-0.0393 -5.94089,-7.70777 0,0 z m -9.80096,-16.1288 c -21.26129,1.82246 3.92601,-4.73855 0,0 z m 1.76739,-13.00708 c -19.74486,1.27919 4.48966,-3.86484 0,0 z m 7.55158,10.14553 c -19.10438,0.18845 -10.10567,-9.98017 0,0 z m 10.4436,6.50354 c -16.99947,0.16248 -20.2888,-8.65762 0,0 z m 2.89209,-4.68255 c -0.0825,4.69533 -9.68544,-4.19488 0,0 z m -199.5538,156.08506 c 26.57719,-14.67545 60.12913,-41.26721 58.34382,-94.4965 7.03733,-34.32256 -21.96166,-60.65723 -17.85462,-15.02319 -1.22719,41.57197 -31.43505,54.98044 -50.45083,70.49843 7.35958,13.9818 36.51864,-20.20064 9.35158,5.24755 -17.63872,8.62231 2.87745,32.95094 0.61005,33.77371 z m -2.73141,-13.52737 c 2.8123,-11.18252 8.65138,0.17467 0,0 z m 6.42685,-3.90213 c -2.36528,-2.01335 2.73867,-1.84596 0,0 z m 3.69545,-3.1217 c 13.56802,-15.33216 35.3228,-28.14896 8.67626,-5.72312 -2.90631,1.68413 -5.44359,5.55848 -8.67626,5.72312 z m 4.82014,-14.04766 c -26.91185,13.18906 42.27194,-42.01126 13.01439,-14.56794 -9.49642,9.27093 -14.53426,16.2566 -13.01439,14.56794 z m 9.96163,-2.08113 c 12.56746,-16.19631 27.8465,-32.77812 6.90887,-6.2434 -2.32732,1.98556 -4.40533,4.85476 -6.90887,6.2434 z m 2.08873,-26.7946 c 14.04226,-17.2989 -3.48267,8.76564 0,0 z m 19.44124,6.76368 c 2.87423,-9.17611 1.81974,2.72076 0,0 z m -11.88969,-13.52736 c 8.54879,-17.68459 8.93336,-10.03973 0,0 z m 7.71223,4.68255 c -0.78996,-7.62814 4.99124,-2.26257 0,0 z m 3.05276,22.11205 c 1.04399,10.8558 17.07021,-75.78212 10.20013,-24.14441 -0.93424,10.0849 -5.62052,17.86743 -10.20013,24.14441 z m 3.53477,-20.03092 c 3.17922,-8.0924 1.41746,2.9906 0,0 z m 2.73141,-8.84483 c 2.60506,-14.24069 0.22537,9.6649 0,0 z m 4.65948,-25.49389 c -4.65814,-15.05727 -1.44633,-34.67238 0,0 z m -19.92326,-105.8777 c -14.0402,19.69058 -8.48005,35.16351 9.64028,46.30525 17.82406,-14.14992 -25.51703,-42.72988 1.28537,-19.70575 22.06688,17.3826 0.24318,-34.62174 -10.92565,-26.5995 z m -1.1247,22.3722 c 10.76059,6.65446 9.56278,17.81144 0,0 z m 7.55155,-4.16227 c 9.55003,4.79094 10.75938,15.50925 0,0 z m 8.03358,1.82099 c 1.61658,-2.15283 3.00477,5.33082 0,0 z m -86.92327,98.59373 c 16.64771,7.64086 68.80626,-48.91291 31.8732,-22.77866 4.14076,10.63229 16.16232,-31.26061 19.70234,-35.23295 2.33246,-26.4827 -42.98141,-85.90879 -9.46205,-37.47668 7.42458,19.97136 18.73046,43.92084 8.05617,7.13764 -5.31921,-18.33737 -31.4222,-61.000266 -30.1259,-25.03864 -30.09636,2.81453 41.04618,54.25228 0.84353,59.93016 -18.20257,6.78231 -37.44624,11.54121 -27.57524,28.55055 6.78558,16.13299 29.67739,-10.0969 38.34022,-5.78814 -6.5658,12.27793 -54.91009,8.51937 -31.65227,30.69672 z m 5.30216,-5.72312 c -0.31874,-4.5931 9.21703,-0.97644 0,0 z m 12.05035,-5.20283 c 10.13095,-8.52412 2.71061,3.44625 0,0 z m -5.30215,-14.82809 c 12.27761,-8.33622 27.87611,-10.53934 5.6235,-1.82099 z m 0,-8.32454 c 2.59222,-7.92911 29.17837,-18.31117 9.92145,-3.02414 -2.72215,-3.439 -7.12669,7.10626 -9.92145,3.02414 z m 22.17265,2.34129 c 14.65978,-21.28716 17.26636,-8.62672 0,0 z m 4.33813,-16.90922 c -8.32037,4.5946 6.90087,-9.27481 0,0 z m 3.69545,-21.07148 c -9.32428,-13.16326 -34.55102,-59.66771 -10.76499,-22.11205 2.88813,8.1944 8.16625,13.492 10.76499,22.11205 z m -1.76739,-17.94978 c -16.41533,-26.10801 -14.41984,-30.46214 0,0 z m -198.58975,64.51504 c 27.95528,-2.83704 57.43827,-11.71226 82.2236,-27.37992 -11.91176,46.24743 16.87376,-4.87631 19.64208,-26.46943 11.5299,-22.88126 -10.15708,0.35586 -0.16066,-18.73021 -0.24185,19.91842 15.24511,-32.93018 -5.46284,-11.18609 -29.77683,29.9839 -65.46816,31.91939 -99.29494,38.24084 -4.7441,28.33572 18.59484,8.16422 28.1175,11.70638 -7.85392,3.72896 -42.59977,9.20184 -16.2504,8.51558 33.78904,1.96268 -23.36495,-7.42857 -10.12482,22.23399 z m 5.94484,-5.72312 c -16.63687,-1.97862 29.47177,-5.29494 0,0 z m -4.01679,-8.58468 c 2.93372,-9.58582 11.78511,4.00544 0,0 z m -2.08872,-20.29106 c 9.39078,-7.47252 19.27178,-2.6197 0,0 z m 26.02877,24.45332 c -17.72841,1.37916 37.65633,-10.23852 6.22853,-1.28039 z m -11.56834,-8.32452 c 9.36622,-9.05852 37.32852,-7.78217 6.99695,-1.85262 -2.34231,0.51415 -4.70198,0.84897 -6.99695,1.85262 z M 434.381,186.62842 c -3.60749,-1.58392 3.54275,-2.28221 0,0 z m 0.96403,13.78751 c -2.35804,-7.60279 50.53951,-17.49288 15.58512,-6.2434 -5.0586,2.9506 -10.44132,3.80401 -15.58512,6.2434 z m 29.72422,0 c 8.32349,-6.18163 11.6642,-1.41711 0,0 z m -29.72422,-8.58468 c 13.26714,-1.46943 59.26155,-28.13886 52.05754,-20.16099 -16.50664,10.63377 -34.47923,17.48324 -52.05754,20.16099 z m 64.26857,-2.86155 c 2.5222,-19.65121 10.65398,-23.29918 0,0 z m -149.42469,47.34603 c 15.89688,2.27076 27.28021,-25.30282 35.45065,-6.39787 15.39963,14.10417 35.81028,-23.25718 14.03083,-23.35305 -36.62253,4.61656 30.53776,-7.7973 -3.69013,-5.62837 -10.63384,3.55068 26.55198,-12.51804 5.41735,-19.54056 -16.72348,9.87014 -15.03256,-52.94724 -29.29462,-9.31485 -6.27891,12.559 -41.95062,28.62333 -16.64148,33.17318 18.68722,-3.26049 -26.93231,11.30993 2.92917,5.96597 35.10465,-3.0418 -28.16153,-4.0239 -8.20177,25.09555 z m 5.94484,-5.72312 c -13.71277,-1.81213 18.67382,-4.18975 0,0 z m -4.01678,-8.58468 c 0.1092,-6.64004 10.85022,-1.11306 2.59082,0.81294 z m 18.15587,0.52029 c -6.06192,3.80383 5.22256,-7.69851 0,0 z m -20.2446,-20.81134 c 9.39076,-7.47254 19.2718,-2.61972 0,0 z m 17.67386,16.38893 c -12.89695,1.42126 23.65727,-18.61823 0,0 z m 6.26618,-0.52029 c -1.2589,-2.86026 5.07087,-2.25259 0,0 z m -7.71223,-13.78751 c -4.96387,1.7038 3.63579,-5.08923 0,0 z m -1.76738,-7.02383 c 4.41588,-4.56972 6.63772,-1.17517 0,0 z m 6.58752,9.62525 c 11.05069,-22.50279 10.39543,-2.44509 0,0 z m 18.15587,17.68963 c -2.47986,-4.60569 28.22226,-3.68951 2.57075,-0.26013 z m -16.22781,-35.37927 c 4.49225,-15.76823 7.83397,-6.61783 0,0 z m 17.9952,5.72311 c -5.58928,-4.62133 23.10772,-3.53597 0,0 z m -34.22301,-60.35288 c 19.3952,0.24558 42.05021,-4.391 34.86569,-37.460419 -13.3314,-3.025281 -45.8732,12.454029 -33.09831,20.811339 -6.8912,8.32119 40.90428,-4.14668 17.15354,3.99003 -5.25395,1.94553 -31.24042,0.49139 -18.92092,12.65905 z m 7.06954,-4.42241 c -0.10397,-4.15063 13.36165,-0.31344 0,0 z m -0.80336,-13.00709 c 15.02866,-5.58415 13.86903,-0.1534 0,0 z m 1.28537,-9.10497 c 12.49882,-5.88038 20.52084,-0.90616 0,0 z m 22.01199,19.77078 c 0.39324,-3.27472 6.29266,-1.63436 0,0 z m -0.48201,-20.29106 c 3.02655,-4.90647 8.28565,0.23362 0,0 z M 273.70922,331.5275 c 27.07235,-5.49301 63.52535,-37.16766 60.89446,-91.04962 24.30762,3.91291 14.85286,-30.79708 0.80336,-24.97361 21.74751,-3.67082 8.83616,-5.67406 -0.84352,-5.07276 20.71647,3.99841 15.49849,-32.91443 -4.29796,-16.519 -11.70726,-67.37548 -50.71334,-24.08519 -45.91187,27.46933 0.4201,39.8911 58.94695,6.83058 21.81116,43.02908 -13.32348,12.25571 -63.21668,41.10184 -22.65468,26.53447 13.87211,-3.85545 -21.68018,12.07673 -13.33573,18.20992 -1.02137,8.29768 2.12081,15.34834 3.53478,22.37219 z m -0.16068,-12.74694 c 2.84548,-11.22333 8.64341,1.25715 0,0 z m 6.42686,-3.38186 c -2.40274,-2.46399 2.71673,-1.39814 0,0 z m 3.69545,-2.86155 c 13.67844,-14.10412 35.30805,-24.89746 8.67625,-4.9427 l -6.56745,4.51997 z m 0.48201,-11.70638 c -13.48543,3.60296 44.45409,-39.3919 17.35251,-15.34837 -5.05457,7.50185 -11.81979,9.12818 -17.35251,15.34837 z m 14.29975,-3.1217 c 12.68882,-15.21839 27.80535,-30.5093 6.90888,-5.46298 -2.32983,1.68009 -4.38188,4.61504 -6.90888,5.46298 z m 21.52998,-18.20993 c 3.06781,-8.71823 1.57011,3.017 0,0 z m -4.17746,-9.10496 c -0.72171,-7.7039 4.85145,-2.07689 0,0 z m 3.05275,22.3722 c 1.21756,10.36346 17.08989,-74.73368 10.20013,-23.21766 -0.89113,9.87947 -5.63681,17.31524 -10.20013,23.21766 z m 3.53478,-19.77078 c 3.23244,-7.44737 1.36748,3.10514 0,0 z m 2.73141,-8.58468 c 2.60506,-14.24069 0.22537,9.66486 0,0 z M 297.9706,230.85263 c -24.06355,-16.21422 33.23065,0.62572 5.70384,-0.0325 z m 0.80336,-5.98326 c -14.42806,-20.45294 -3.64825,-7.31879 2.57074,-2.08113 -12.93272,-9.60099 29.10698,4.74066 -2.57074,2.08113 z m 6.26618,-8.84481 c -11.44921,-7.31508 -1.54103,-13.22313 4.17746,-1.04057 z m 21.52997,27.83516 c -1.93622,-9.74346 3.20056,-0.22198 0,0 z m -2.08873,-22.89247 c 2.64134,-6.63869 5.68465,3.65999 0,0 z m -26.99279,-43.44368 c 8.74609,-12.359 3.79436,-0.0566 0,0 z m 26.67145,37.46042 c 2.07323,-5.68024 6.19892,2.55273 0,0 z m -6.58753,-15.86864 c -15.58995,-23.18072 -0.4196,-11.15821 0,0 z m 20.08393,27.31488 c -9.13806,0.23814 8.1097,-4.01073 0,0 z m 2.24941,7.28397 c -2.13861,-2.89117 12.16897,-1.55689 0,0 z m -18.15588,-36.68 c -11.38358,-15.79679 -21.07677,-36.12141 -2.57074,-8.32452 0.43135,2.71197 4.13322,5.28873 2.57074,8.32452 z m 2.08873,-4.16226 c -16.22347,-30.28244 -5.4045,-27.47576 1.36571,3.05665 z m -12.53237,-24.19318 c -6.08945,-0.91376 -1.33526,-4.93414 0,0 z m 3.05276,4.68255 c -3.71898,-0.80652 -1.36106,-4.71672 0,0 z m 24.10071,30.69672 c -12.51347,-2.97382 20.14285,-3.75022 0,0 z M 213.45755,249.3227 c 16.6477,7.64085 68.80625,-48.91291 31.87319,-22.77866 4.14074,10.63229 16.16233,-31.2606 19.70233,-35.23295 2.33248,-26.4827 -42.9814,-85.90878 -9.46204,-37.47668 7.42458,19.97134 18.73046,43.92085 8.05617,7.13764 -5.31921,-18.33733 -31.42218,-61.000295 -30.1259,-25.03864 -30.09635,2.81453 41.04618,54.25226 0.84353,59.93016 -18.20256,6.78233 -37.44625,11.5412 -27.57524,28.55055 6.78557,16.13298 29.67739,-10.09689 38.34022,-5.78814 -6.56581,12.27794 -54.91009,8.51937 -31.65226,30.69672 z m 5.30215,-5.72312 c -0.31875,-4.5931 9.21705,-0.97644 0,0 z m 12.05036,-5.20283 c 10.13094,-8.52412 2.7106,3.44625 0,0 z m -5.30216,-14.82809 c 12.27761,-8.33622 27.87612,-10.53934 5.6235,-1.82099 z m 0,-8.32454 c 2.59221,-7.92911 29.17837,-18.31118 9.92147,-3.02414 -2.72217,-3.439 -7.12671,7.10626 -9.92147,3.02414 z m 22.17266,2.34129 c 14.65974,-21.28715 17.26636,-8.62673 0,0 z m 4.33813,-16.90922 c -8.32039,4.59461 6.90087,-9.27482 0,0 z m 3.69544,-21.07148 c -9.32428,-13.16326 -34.55101,-59.66772 -10.76499,-22.11205 2.88814,8.19439 8.16626,13.492 10.76499,22.11205 z m -1.76739,-17.94978 c -16.41536,-26.1081 -14.41979,-30.46205 0,0 z m -118.25402,74.66066 c 15.01881,-1.03691 39.41602,-7.38885 41.13188,-34.07858 6.7452,-4.64762 1.0675,-16.3429 3.43436,-30.66421 -0.32037,-21.59209 3.50659,30.27219 3.31385,0.48777 7.07973,30.22011 0.6768,-52.94137 -11.75102,-61.59738 -13.05008,-17.204763 -11.05862,30.79624 -14.75977,21.01526 -23.34469,-1.67946 26.09971,59.76387 -8.9976,56.58083 -18.67412,-7.45593 -20.66568,28.06473 -1.44604,15.99873 3.07431,2.55519 -29.25066,9.81173 -2.02095,6.72709 32.64609,1.89947 -23.20118,-6.57434 -10.21519,22.3153 z m 5.94484,-5.72312 c -9.72762,-4.41815 27.19478,-3.64583 0,0 z m -4.01679,-8.58468 c 2.93372,-9.58584 11.78511,4.00543 0,0 z m -2.08872,-20.29106 c 9.39083,-7.47252 19.27173,-2.61971 0,0 z m 29.08153,15.08823 c -3.90512,-0.62117 6.01042,-3.64131 0,0 z m -6.7482,-7.80426 c 15.22889,-11.90097 7.06588,3.56181 0,0 z m 2.41007,-13.52737 c -29.84071,12.64072 19.81028,-17.87345 0,0 z m 8.35491,13.78751 c -4.13662,0.66056 2.7561,-2.79093 0,0 z m -3.21342,-47.3458 c -5.85596,-3.50701 -11.16026,-27.92557 0,0 z m 8.67625,5.20283 c -8.61846,-10.15238 -17.36714,-48.62079 -3.6603,-10.90156 l 2.01342,5.50363 z m -0.64268,-11.44623 c -2.22995,1.10104 -0.27867,-9.11306 0,0 z m 7.39088,6.76368 c -3.08126,-1.1438 -1.10248,-9.93999 0,0 z m -4.98081,-9.88538 c -7.20021,-2.61291 -12.39401,-45.26685 -2.41007,-7.80425 0.80335,2.60141 1.60671,5.20283 2.41007,7.80425 z m -25.54676,131.11144 c 19.39522,0.24558 42.05019,-4.39096 34.8657,-37.46041 -13.3314,-3.02529 -45.87322,12.45403 -33.09832,20.81135 -6.89118,8.32119 40.90427,-4.14668 17.15354,3.99002 -5.25395,1.94553 -31.24042,0.49138 -18.92092,12.65904 z m 7.06954,-4.4224 c -0.10403,-4.15065 13.3617,-0.31344 0,0 z m -0.80335,-13.00709 c 15.02867,-5.58416 13.86902,-0.1534 0,0 z m 1.28537,-9.10496 c 12.49883,-5.88039 20.52082,-0.90618 0,0 z m 22.01198,19.77077 c 0.39324,-3.2747 6.29265,-1.63438 0,0 z m -0.48202,-20.29106 c 3.02653,-4.90646 8.28571,0.2336 0,0 z M 59.213002,331.5275 c 27.072359,-5.49301 63.525368,-37.16766 60.894468,-91.04962 24.30762,3.91293 14.85285,-30.79708 0.80336,-24.97361 21.74751,-3.67082 8.83614,-5.67406 -0.84352,-5.07276 20.71648,3.99841 15.49849,-32.91443 -4.29797,-16.519 -11.70725,-67.37549 -50.713335,-24.08519 -45.911856,27.46933 0.420101,39.8911 58.946956,6.83058 21.811145,43.02908 -13.323472,12.25572 -63.216669,41.10183 -22.65467,26.53447 13.872094,-3.85543 -21.680181,12.07673 -13.335729,18.20992 -1.021382,8.29768 2.120809,15.34834 3.534772,22.37219 z M 59.05233,318.78056 c 2.84548,-11.22333 8.643406,1.25715 0,0 z m 6.426857,-3.38186 c -2.402748,-2.46398 2.716739,-1.39815 0,0 z m 3.695443,-2.86155 c 13.678447,-14.10412 35.30806,-24.89746 8.676257,-4.9427 l -6.567444,4.51997 z m 0.482015,-11.70638 c -13.48543,3.60296 44.454085,-39.3919 17.352517,-15.34837 -5.054575,7.50185 -11.819798,9.1282 -17.352517,15.34837 z m 14.299757,-3.1217 c 12.688826,-15.21841 27.805338,-30.5093 6.90887,-5.46298 -2.329832,1.68009 -4.381881,4.61504 -6.90887,5.46298 z m 21.529978,-18.20993 c 3.06781,-8.71823 1.5701,3.01698 0,0 z m -4.17747,-9.10496 c -0.72171,-7.70388 4.85145,-2.07689 0,0 z m 3.05276,22.3722 c 1.21754,10.36346 17.0899,-74.73368 10.20013,-23.21766 -0.89114,9.87946 -5.63681,17.31524 -10.20013,23.21766 z m 3.53478,-19.77078 c 3.23245,-7.44737 1.36747,3.10512 0,0 z m 2.73141,-8.58468 c 2.60505,-14.24069 0.22537,9.66486 0,0 z M 83.474389,230.85263 c -24.063558,-16.21422 33.230651,0.62572 5.703834,-0.0325 z m 0.803357,-5.98326 c -14.428059,-20.45293 -3.64824,-7.3188 2.57074,-2.08113 -12.932705,-9.60099 29.106984,4.74066 -2.57074,2.08113 z m 6.266181,-8.84481 c -11.449211,-7.31508 -1.541029,-13.22315 4.177462,-1.04057 z m 21.529973,27.83516 c -1.93623,-9.74346 3.20057,-0.22198 0,0 z m -2.08873,-22.89247 c 2.64133,-6.63871 5.68466,3.66 0,0 z M 82.992376,177.52357 c 8.746025,-12.35897 3.794386,-0.0566 0,0 z m 26.671454,37.46042 c 2.07324,-5.68024 6.19891,2.55272 0,0 z m -6.58753,-15.86864 c -15.589951,-23.18071 -0.41962,-11.15822 0,0 z m 20.08393,27.31488 c -9.13806,0.23814 8.1097,-4.01073 0,0 z m 2.2494,7.28397 c -2.13855,-2.89118 12.16893,-1.55687 0,0 z m -18.15587,-36.68 c -11.383582,-15.79679 -21.076782,-36.12141 -2.57074,-8.32452 0.43135,2.71197 4.1332,5.28872 2.57074,8.32452 z m 2.08873,-4.16226 c -16.223469,-30.28244 -5.4045,-27.47576 1.36571,3.05665 z M 96.810116,168.67876 c -6.089418,-0.91373 -1.335298,-4.93416 0,0 z m 3.05276,4.68255 c -3.718978,-0.80651 -1.361059,-4.71672 0,0 z m 24.100714,30.69672 c -12.51347,-2.97382 20.14285,-3.75022 0,0 z"
       id="text3"
       style="font-size:204.444px;font-family:'Lemon Brush Arabic Personal Use Only';-inkscape-font-specification:'Lemon Brush Arabic Personal Use Only, Normal';fill:none;stroke:#ffffff;stroke-width:4;stroke-linecap:round;stroke-linejoin:round;stroke-dasharray:none;stroke-opacity:1"
       aria-label="إس إم زد ستوديو" />
  </g>
</svg>
